<?xml version="1.0" standalone="no"?><!DOCTYPE svg PUBLIC "-//W3C//DTD SVG 1.1//EN" "http://www.w3.org/Graphics/SVG/1.1/DTD/svg11.dtd"><svg t="1773505227651" class="icon" viewBox="0 0 1024 1024" version="1.1" xmlns="http://www.w3.org/2000/svg" p-id="1872" xmlns:xlink="http://www.w3.org/1999/xlink" width="200" height="200"><path d="M352 832h32v32h-32v-32z m0 32h64v32h-64v-32z m32 32h96v32h-96v-32z m224 64h-192v-32h192v32z m0 32h320v32H608v-32z m352 0H512v-32h448v32z m32-96v96h-32v-96h32z m0-96v64h-32v-64h32z m32 0v128h-32v-128h32z m-32 0h-64v-32h64v32z m0-32h-128v-32h128v32z m-64-32h-160v-32h160v32z m-96-32h-160v-32h160v32z m-96-32h-96v-32h96v32z m-64-32h-96v-32h96v32z m32-96v64h-32v-64h32z m-32 64h-128v-32h128v32z m0-32h-160v-32h160v32z m-32-32h-160v-32h160v32z m-160-64h160v32h-160v-32z m160 0h-96v-32h96v32z m96 32v64h-32v-64h32z m0 32v-192h32v192h-32z m-32-96v-96h32v96h-32z m0-64h-32v-32h32v32z m32-32h-96v-32h96v32z m-384 0h64v32h-64v-32z m96 0h-96v-32h96v32z m0-96h224v32h-224V256z m256 64H352V288h352v32z m-384 32V192h32v160h-32zM288 256V96h32v160H288zM256 160V96h32v64H256z m32-64H224V64h64v32z m0-32H96V32h192v32zM224 32H96V0h128v32zM96 32v64H64V32h32z m192 896v-128h32v128H288z m-32-32v-128h32v128H256z m-32 0v-160h32v160H224z m128-64v96h-32v-96h32z m0 128H288v-32h64v32z m-224 0h192v32H128v-32z m160 64H128v-32h160v32z m-192-32v-64h32v64H96z m-32 0v-96h32v96H64z m0-352v320H32V640h32z m-64 256v-192h32v192H0z m160-288v32H128v-32h32z m-64 64v-128h32v128H96z m-32 32v-256h32v256H64z m-32-192V32h32v480H32z m-32-96V128h32v288H0z" fill="#000000" p-id="1873"></path><path d="M352 416h32v32h-32v-32z m0-32v224h-32v-224h32z m-64 224v-288h32v288H288zM288 224v384H256V224h32zM224 608V128h32v480H224zM224 96v512H192V96h32zM160 608V64h32v544H160zM160 64v512H128V64h32zM96 480V96h32v384H96z m-32-128V160h32v192H64z" fill="#F9D47B" p-id="1874"></path><path d="M480 576h-128v-32h128v32z m-128-64h96v32h-96v-32z m96 0h-96v-32h96v32z m32-32h-128v-32h128v32z m-96-64h160v32h-160v-32z m224-64h-96v-32h96v32z m-160 0h160v32h-160v-32z m192 0v96h-32v-96h32z m64 64v96h-32v-96h32z m-64 96v-160h32v160h-32z m32-96h-256v-32h256v32z m-160 192h-160v-32h160v32z m-288 0h320v32H224v-32z m352 64H224v-32h352v32z m352 224v32h-32v-32h32z m0-64v32h-32v-32h32z m-96 32h-128v-32h128v32z m-224-64h320v32H608v-32z m288 0H544v-32h352v32z m-128-32h-256v-32h256v32z m-64-32h-256v-32h256v32z m-64-32H224v-32h416v32zM224 608v128H192v-128h32z m-32 32v256H160v-256h32z m-32 32v224H128v-224h32z m-96 192v-96h32v96H64z m64-160v192H96v-192h32z m-32 192h160v32H96v-32z m128 32v32H192v-32h32z" fill="#F9B607" p-id="1875"></path><path d="M192 608v32H160v-32h32z m-96 256v32H64v-32h32z m544-352h32v32h-32v-32z m0 160h32v32h-32v-32z m64 32h32v32h-32v-32z m64 32h32v32h-32v-32z m160 32v32h-32v-32h32z m32 32v64h-32v-64h32z m0 96h-64v-32h64v32zM256 128H224V96h32v32z m0 64h32v32H256V192z m32 96h32v32H288V288z m32 64h32v32h-32v-32z m288-32h32v32h-32v-32z m96 96h-32v-32h32v32z m-96 32h-64v-32h64v32z m-32 192h-32v-32h32v32z m32 32h-32v-32h32v32zM128 928h64v32H128v-32z m96 0h32v32H224v-32z m32-32h32v32H256v-32z m384 32h256v32h-256v-32z m256 0H544v-32h352v32z m-32-64h-32v-32h32v32z m-32 32H448v-32h384v32z m-128-32H384v-32h320v32z m-96-32h-256v-32h256v32z m-64-32h-224v-32h224v32z m-32-32H288v-32h224v32z m-64-32H224v-32h224v32z" fill="#C78805" p-id="1876"></path><path d="M992 864v32h-32v-32h32z m-64 96h-32v-32h32v32z m0 0v-64h32v64h-32zM288 160v32H256V160h32z m32 96v32H288V256h32z m352 256h32v32h-32v-32z m64-64v64h-32v-64h32z m-192 32h-64v-32h64v32z m-64 0v64h-32v-64h32zM160 608H128v-32h32v32z m480 352h-32v-32h32v32z m-96-32h-64v-32h64v32z m-96-32h-32v-32h32v32z m-160 32v32H256v-32h32z m32-128H288v-32h32v32z m-32-32H256v-32h32v32z m-64-32v160H192v-160h32z" fill="#422E0D" p-id="1877"></path><path d="M864 864v32h-32v-32h32z m32-32v64h-32v-64h32z" fill="#9F6428" p-id="1878"></path><path d="M448 352v-32h32v32h-32z m416 416h-64v-32h64v32z m-128-32v-32h32v32h-32z m-256-160v-32h32v32h-32z m128 96v-32h32v32h-32z m-96-64v-32h32v32h-32zM64 736v-32h32v32H64z m256 96v-32h32v32h-32z" fill="#674D03" p-id="1879"></path><path d="M192 96V64h32v32H192zM96 96V64h32v32H96zM64 160V96h32v64H64z m416 192v-32h32v32h-32z m-64 32v-32h32v32h-32z m-32 32v-32h32v32h-32zM64 384v-32h32v32H64z m32 128v-32h32v32H96z m-32 256v-32h32v32H64z m32-64v-32h32v32H96z m32-32v-32h32v32H128z" fill="#B9963C" p-id="1880"></path><path d="M384 384v32h-32v-32h32z m-288 0v64H64v-64h32z m0 160v-32h32v32H96z" fill="#505044" p-id="1881"></path></svg>