<?xml version="1.0" standalone="no"?><!DOCTYPE svg PUBLIC "-//W3C//DTD SVG 1.1//EN" "http://www.w3.org/Graphics/SVG/1.1/DTD/svg11.dtd"><svg t="1773505184120" class="icon" viewBox="0 0 1024 1024" version="1.1" xmlns="http://www.w3.org/2000/svg" p-id="1337" xmlns:xlink="http://www.w3.org/1999/xlink" width="200" height="200"><path d="M480 544h-64v-32h64v32z m256-32h-32v-32h32v32z m-32 32h-96v-32h96v32z m-64-32h-64v-32h64v32z m-96 0v-96h32v96h-32z m256-128v64h-32v-64h32z m-64 128v-160h32v160h-32z m-32-128h-64v-32h64v32z m64-32h-96v-32h96v32z m-96 64h-128v-32h128v32z m-192-96V64h32v256h-32z m32 96V64h32v352h-32z m0-416h96v32h-96V0z m-32 32h192v32h-192V32z m160 32h64v32h-64V64z m32 32h128v32h-128V96z m192 64h-192V128h192v32z m-64 0h64v32h-64V160z m96 0v64h-32V160h32z m32 0v96h-32V160h32z m32 32v128h-32V192h32z m64 128v224h-32v-224h32z m-32-64v416h-32V256h32z m-32 352v128h-32v-128h32z m-32 96v64h-32v-64h32z m-32 32v64h-32v-64h32z m-32 32v64h-32v-64h32z m-32 64v32h-32v-32h32z m-64 64v32h-32v-32h32z m32-64v128h-32v-128h32z m-128 160h128v32h-128v-32z m128 0h-192v-32h192v32z m-160-32h-288v-32h288v32z m-32-32H256v-32h352v32z m-288-32H256v-32h64v32z m-96 0v-64h32v64H224z m-32 0v-64h32v64H192z m-32-32v-64h32v64H160z m-32-32v-64h32v64H128z m-32-32v-96h32v96H96z m-32-32v-128h32v128H64z m-32-64V288h32v416H32z m-32-96v-224h32v224H0z m64-192V288h32v128H64z m416-128H64V256h416v32z m0-32H96V224h384v32z" fill="#010101" p-id="1338"></path><path d="M320 864h64v32h-64v-32z m-32-32v32H256v-32h32zM672 288h64v32h-64V288z m0-192v32h-32V96h32z m192 96v32h-32V192h32z m64 64v32h-32V256h32z m32 64v32h-32v-32h32z m0 192v96h-32v-96h32z m-32 128v64h-32v-64h32z m-32 64v32h-32v-32h32z m-32 32v32h-32v-32h32z m-32 32v32h-32v-32h32z m0 64h-64v-32h64v32z m-64 0v64h-32v-64h32z m0 96v32h-32v-32h32z m-256-576h-32v-32h32v32z m-64-64h32v32h-32V288z m96-96h32v32h-32V192z m128 160h-32v-32h32v32z m-32 32h-32v-32h32v32z m-96 32v64h-32v-64h32z m-64 96h-64v-32h64v32z m-64 32h64v32h-64v-32z" fill="#104354" p-id="1339"></path><path d="M800 192v160h-32V192h32z m-64 128V192h32v128h-32z m0-160v128h-32V160h32z m-64 128V160h32v128h-32z m-32 32V128h32v192h-32z m0-224v256h-32V96h32z m-64 288V64h32v320h-32z m0-320v128h-32V64h32z m0 192v128h-32V256h32z m384 96v160h-32v-160h32z m-64 288V288h32v352h-32z m0-416v480h-32V224h32z m-64 512V224h32v512h-32z m0-544v544h-32V192h32z m-32 320v224h-32v-224h32z m-32 32v192h-32v-192h32z m-64 416v-192h32v192h-32z m0-224v-192h32v192h-32z m0-192v416h-32V544h32z m-64 384V544h32v384h-32z m-64-192v-192h32v192h-32z m64-192v352h-32V544h32z m-96 192v-224h32v224h-32z m-32 0v-256h32v256h-32z m-32-160v160h-32v-160h32z m0 160V352h32v384h-32z m-32-256v-128h32v128h-32z m0-128v128h-32v-128h32z m0 224v160h-32v-160h32z m-96 128v-96h32v96h-32z m32 32V352h32v384h-32zM96 320h384v32H96v-32z m352 0H160V288h288v32z" fill="#05B8F2" p-id="1340"></path><path d="M768 832h-32v-32h32v32z m-32-64h64v32h-64v-32z m96 0h-128v-32h128v32z m-224 128h-192v-32h192v32z m-192-64h192v32h-192v-32z m192 0h-192v-32h192v32z m-192-64h192v32h-192v-32z m192 0h-192v-32h192v32z m-192-32v128h-32v-128h32z m-64 128v-160h32v160h-32z m0-480v-32h32v32h-32z m0 64v416h-32V448h32zM288 864V416h32v448H288z m0-448v416H256V416h32zM224 832V416h32v416H224z m0-416v384H192V416h32zM160 768V416h32v352H160z m0-352v320H128V416h32z m-64 256v-256h32v256H96z m-32-96v-128h32v128H64z" fill="#67E4F8" p-id="1341"></path><path d="M768 192h-32V160h32v32zM64 608v-32h32v32H64z m0-160v-32h32v32H64z m64-160h32v32H128V288z m672 192v32h-32v-32h32z m-32 32v32h-32v-32h32zM416 896h-32v-32h32v32z" fill="#1298BB" p-id="1342"></path><path d="M352 448h-32v-32h32v32z m-32-32H288v-32h32v32z m-64 0H224v-32h32v32z m-64 0H160v-32h32v32z m-96-32h32v32H96v-32z m64-32h32v32H160v-32z m64 0h128v32H224v-32z m160 32v192h-32v-192h32z" fill="#B7CFCF" p-id="1343"></path><path d="M192 832v-32h32v32H192z m-32-32v-32h32v32H160z m-32-32v-32h32v32H128z m-64-128v-32h32v32H64z m32-320V288h32v32H96z m448-64V224h32v32h-32z m64-160V64h32v32h-32z m192 64v32h-32V160h32z m-96 224v-32h32v32h-32z m96-32v32h-32v-32h32z m0 96v32h-32v-32h32z m-64 64v32h-32v-32h32z m-160 32v-32h32v32h-32z m32-128v64h-32v-64h32z" fill="#263D45" p-id="1344"></path><path d="M608 416h64v32h-64v-32z m64 0v-32h32v32h-32zM96 384v-32h32v32H96z m0 320v-32h32v32H96z" fill="#778183" p-id="1345"></path><path d="M352 608v-32h32v32h-32z" fill="#D8D8D8" p-id="1346"></path><path d="M320 384h32v32h-32v-32z m416 0v32h-32v-32h32z m0 64h-64v-32h64v32z m-128 0h96v32h-96v-32z" fill="#E5E6E8" p-id="1347"></path><path d="M256 416v-32h32v32H256z m-128 0v-64h32v64H128z m96-64v64H192v-64h32z" fill="#E7F2F4" p-id="1348"></path><path d="M736 480h-32v-32h32v32z m-96 0h64v32h-64v-32z" fill="#292728" p-id="1349"></path><path d="M640 896v32h-32v-32h32z m32 32v32h-32v-32h32z" fill="#253E45" p-id="1350"></path></svg>