<?xml version="1.0" standalone="no"?><!DOCTYPE svg PUBLIC "-//W3C//DTD SVG 1.1//EN" "http://www.w3.org/Graphics/SVG/1.1/DTD/svg11.dtd"><svg t="1773505242399" class="icon" viewBox="0 0 1024 1024" version="1.1" xmlns="http://www.w3.org/2000/svg" p-id="2051" xmlns:xlink="http://www.w3.org/1999/xlink" width="200" height="200"><path d="M672 672v-32h32v32h-32z m-32 0v-64h32v64h-32z m-32-32v-64h32v64h-32z m64 32h96v32h-96v-32z m32 32h64v32h-64v-32z m256 0v32h-32v-32h32z m-32 96h-160v-32h160v32z m32-32h-224v-32h224v32z m0-448h-32V288h32v32z m-32-64h-128V224h128v32z m32 32h-160V256h160v32z m0 192v64h-32v-64h32z m64-160v160h-32v-160h32z m0 224v160h-32v-160h32z m-64 192V288h32v448h-32z m-448 192v-32h32v32h-32z m-32 0v-64h32v64h-32z m0 0h96v32h-96v-32z m96 64h96v32h-96v-32z m96 0h-160v-32h160v32z m0 32v-160h32v160h-32z m32-32v-128h32v128h-32z m-64-96v-64h32v64h-32z m-32-32v-64h32v64h-32z m-64-64v-192h32v192h-32z m32 64v-288h32v288h-32z m-288-160v32H256v-32h32z m32-32v64H288v-64h32z m32-32v64h-32v-64h32z m32-32v64h-32v-64h32z m32-32v64h-32v-64h32z m32 320v-288h32v288h-32z m-32-64v-256h32v256h-32z m-160-32H96v-32h160v32z m32-32H96v-32h192v32z m-224 0v-64h32v64H64zM96 288v32H64V288h32z m-32 256v-64h32v64H64z m-64 160v-160h32v160H0z m0-224v-160h32v160H0z m32 256V288h32v448H32z m576-320v-64h32v64h-32z m64-96v96h-32v-96h32z m32-32v96h-32V288h32z m0 64V256h32v96h-32z m64-64V96h32v192h-32z m-32 32V96h32v224h-32z m-352 96v-64h32v64h-32z m-32 0v-96h32v96h-32z m-32-32V288h32v96h-32z m-32-32V256h32v96H288zM224 288H64V256h160v32z m0-32H96V224h128v32z m0 32V96h32v192H224z m32 32V96h32v224H256z m512-224h-64V64h64v32z m-224 0h-64V64h64v32z m-224 0H256V64h64v32z m416-32H288V32h448v32z m-32-32h-160V0h160v32z m-224 0h-160V0h160v32z" fill="#000200" p-id="2052"></path><path d="M608 512h256v32h-256v-32z m256 0h-256v-32h256v32z m-448 32H160v-32h256v32z m-256-64h256v32H160v-32z m352-64V160h32v256h-32z m-32 0V160h32v256h-32z" fill="#75D573" p-id="2053"></path><path d="M640 960v-32h32v32h-32z m-32 0v-64h32v64h-32z m-32-32v-64h32v64h-32z m-32-32v-64h32v64h-32zM160 288h64v32H160V288z m96 64H160v-32h96v32z m-96 0h128v32H160v-32z m160 64H160v-32h160v32z m-160 0h192v32H160v-32z m256 64H160v-32h256v32zM64 448v-96h32v96H64z m64-128v160H96v-160h32z m-32 288v64H64v-64h32z m0 96v-160h32v160H96z m576-128h288v32h-288v-32z m288 64h-256v-32h256v32z m-224 0h224v32h-224v-32z m192 64h-160v-32h160v32z m-128 0h96v32h-96v-32z m96-384h-64V288h64v32z m-128 0h160v32h-160v-32z m192 64h-224v-32h224v32z m-256 0h256v32h-256v-32z m256 64h-288v-32h288v32zM320 160v64H288V160h32z m0 96V96h32v160h-32z m64-160v192h-32V96h32z m0 224V64h32v256h-32z m160-160h-64V128h64v32z m160 64V128h32v96h-32z m0-128v160h-32V96h32z m-64 192V64h32v224h-32z m0-224v256h-32V64h32z m-64 384v-32h32v32h-32z m0-96V96h32v256h-32z m0-256v352h-32V96h32z m288 448v-64h32v64h-32z m-320-32h64v32h-64v-32z m64 0h-64v-32h64v32z m-64-64h384v32H544v-32z m-128 96v-128h32v128h-32z m0-192V64h32v288h-32z m64-256v448h-32V96h32z m32 320v384h-32V416h32z m0 448V416h32v448h-32z m416-288H352v-32h576v32z m-608 32v-64h32v64h-32z m0-64v96H288v-96h32z m-64 128v-128h32v128H256z m0-128v160H224v-160h32z m-64 192v-192h32v192H192z m0-192v192H160v-192h32z m-64 192V288h32v448H128z" fill="#1AA315" p-id="2054"></path><path d="M64 352v-32h32v32H64z m32-32V288h32v32H96z m0 128v32H64v-32h32z m32 32v64H96v-64h32z m-64 96v-32h32v32H64z m0 128v-32h32v32H64z m32 32v-32h32v32H96z m128 0v-32h32v32H224z m32-32v-32h32v32H256z m32-32v-32h32v32H288z m32-32v-32h32v32h-32z m32-32v-32h32v32h-32z m128 256v-64h32v64h-32z m32 32v-32h32v32h-32z m32 32v-32h32v32h-32z m32 32v-32h32v32h-32z m64-32v-32h32v32h-32z m-32-32v-32h32v32h-32z m-64-64v-32h32v32h-32z m-96-224v-32h32v32h-32z m96 0v-32h32v32h-32z m96 0v-32h32v32h-32z m32 32v-32h32v32h-32z m32 32v-32h32v32h-32z m224 32v-32h32v32h-32z m-32 32v-32h32v32h-32z m-128 0v-32h32v32h-32z m160-160v-32h32v32h-32z m-32-32v-64h32v64h-32z m32-64v-32h32v32h-32z m-32-160V288h32v32h-32z m32 32v-32h32v32h-32z m-256-256V64h32v32h-32z m32 32V96h32v32h-32z m64 192V288h32v32h-32z m-32 32v-32h32v32h-32z m-32 32v-32h32v32h-32z m-32 32v-32h32v32h-32z m-64 32v-32h32v32h-32z m-32-32v-64h32v64h-32z m32-64v-32h32v32h-32z m32-32V288h32v32h-32z m32-32V256h32v32h-32z m32-32V224h32v32h-32zM224 320V288h32v32H224z m32 32v-32h32v32H256z m32 32v-32h32v32H288z m32 32v-32h32v32h-32z m32 32v-32h32v32h-32z m64-32v-64h32v64h-32z m-32-64v-32h32v32h-32z m-32-32V288h32v32h-32z m-32-32V256h32v32h-32z m0-32H288V224h32v32z m256-160h-32V64h32v32z m-32 32h-64V96h64v32z m-64-32h-32V64h32v32z m-160 32H288V96h32v32z m32-32h-32V64h32v32z" fill="#0F510A" p-id="2055"></path><path d="M800 320V288h32v32h-32z m-224-224V64h32v32h-32z m-224 0V64h32v32h-32zM288 160V128h32v32H288z m352 288v-32h32v32h-32z m-256 0v-32h32v32h-32zM64 608v-32h32v32H64z" fill="#148614" p-id="2056"></path></svg>