<?xml version="1.0" standalone="no"?><!DOCTYPE svg PUBLIC "-//W3C//DTD SVG 1.1//EN" "http://www.w3.org/Graphics/SVG/1.1/DTD/svg11.dtd"><svg t="1773505194399" class="icon" viewBox="0 0 1024 1024" version="1.1" xmlns="http://www.w3.org/2000/svg" p-id="1520" xmlns:xlink="http://www.w3.org/1999/xlink" width="200" height="200"><path d="M0 0m0 0l1024 0q0 0 0 0l0 1024q0 0 0 0l-1024 0q0 0 0 0l0-1024q0 0 0 0Z" fill="#E4E4E4" fill-opacity="0" p-id="1521"></path><path d="M160 480H128v-32h32v32zM128 288v64H96V288h32z m-64 96V288h32v96H64z m0-64v192H32v-192h32z m-64 192v-128h32v128H0z m288 352H224v-32h64v32z m-96 0v-64h32v64H192z m-32-32v-96h32v96H160z m-32-32v-96h32v96H128z m-64-128v-224h32v224H64z m64-224v320H96V448h32z m96 416h160v32H224v-32z m96 32h192v32h-192v-32z m128 32h224v32h-224v-32z m416 96h-160v-32h160v32z m-288-64h320v32H576v-32z m320 32v-64h32v64h-32z m32-32v-64h32v64h-32z m96-256v160h-32v-160h32z m-64 224V576h32v352h-32z m-32-256v-224h32v224h-32z m-32-160V288h32v224h-32z m-32-128V224h32v160h-32z m-32-96V224h32v64h-32z m32-64h-64V192h64v32z m-32-32h-64V160h64v32z m-32-32h-96V128h96v32zM480 160h-32V128h32v32z m-32-64h320v32H448V96z m256 0h-256V64h256v32zM384 0h128v32h-128V0z m128 64h-192V32h192v32z m-128 32H288V64h96v32z m-32 32H288V96h64v32z m-32 64H192V160h128v32z m0-32H192V128h128v32z m-160 160V128h32v192H160z m-32 0V128h32v192H128z" fill="#080808" p-id="1522"></path><path d="M544 128h32v32h-32V128z m64 0h64v32h-64V128z m-288 736v-32h32v32h-32z m-64-32v-32h32v32H256z m-96-96v-32h32v32H160z m-32-96v-64h32v64H128z m704-288v-32h32v32h-32z m64 96v32h-32v-32h32z m32 128v64h-32v-64h32z m32 128v64h-32v-64h32z m0 128v32h-32v-32h32z m-96 128h-32v-32h32v32z m-96 0h-32v-32h32v32z m-128-32h-64v-32h64v32z m-128-32h-64v-32h64v32z m256-96h64v32h-64v-32z m64 0h-96v-32h96v32z m-32-32h-64v-32h64v32z m-224 32h64v32h-64v-32z m64 0h-96v-32h96v32z m-32-32h-64v-32h64v32z m-224 32h64v32h-64v-32z m64 0h-96v-32h96v32z m-32-32h-64v-32h64v32z m416-128h-64v-32h64v32z m-96-64h96v32h-96v-32z m64 0h-64v-32h64v32z m-224 32h64v32h-64v-32z m64 0h-96v-32h96v32z m-32-32h-64v-32h64v32z m-160 64h-64v-32h64v32z m-96-64h96v32h-96v-32z m64 0h-64v-32h64v32z m352-160h64v32h-64v-32z m64 0h-96v-32h96v32z m-32-32h-64v-32h64v32z m-224 32h64v32h-64v-32z m64 0h-96v-32h96v32z m-32-32h-64v-32h64v32z" fill="#BB201C" p-id="1523"></path><path d="M544 320V256h32v64h-32z m0-64v64h-32V256h32z m-64 96V256h32v96h-32z m0-128v128h-32V224h32z m-64 128V96h32v256h-32z m0-256v256h-32V96h32z m-64 256V128h32v224h-32z m0-160v320h-32V192h32zM288 576V192h32v384H288z m-192-128v-64h32v64H96z m64-96v96H128v-96h32z m0 96v-128h32v128H160z m32 0V224h32v224H192z m32 0V192h32v256H224z m64-256v384H256V192h32z" fill="#138013" p-id="1524"></path><path d="M608 288h-32V256h32v32z m-128-64h128v32h-128V224z m32 128v-32h32v32h-32z m-192 192v-32h32v32h-32z m-64 64v-32h32v32H256z m-32 0v-160h32v160H224z" fill="#387518" p-id="1525"></path><path d="M160 704v-224h32v224H160z m64-256v320H192V448h32z m32 160v192H224v-192h32z m0 192v-192h32v192H256z m64-192v224H288v-224h32z m64 128v-96h32v96h-32z m0-128v128h-32v-128h32z m64 32v128h-32v-128h32z m0 224h-64v-32h64v32z m-96 0v-64h32v64h-32z m-32-32v-256h32v256h-32z m96-256v-160h32v160h-32z m0-160v128h-32v-128h32z m-64 128v-128h32v128h-32z m224 0v-96h32v96h-32z m-32 0v-128h32v128h-32z m64 32v-128h32v128h-32z m32 64v128h-32v-128h32z m-64 96v-96h32v96h-32z m0-128v128h-32v-128h32z m-128 256V416h32v448h-32z m64-448v448h-32V416h32z m64 416h64v32h-64v-32z m64 64h-64v-32h64v32z m-64-96v96h-32v-96h32z m-64 96V416h32v480h-32z m32-480h-192v-32h192v32z m0-32h-160v-32h160v32z m224 160v-96h32v96h-32z m64-96v128h-32v-128h32z m-64 288v-96h32v96h-32z m64-96v128h-32v-128h32z m128 128v64h-32v-64h32z m-64 128v-256h32v256h-32z m0-416v448h-32V480h32z m-128 480v-128h32v128h-32z m64-128v128h-32v-128h32z m0 96V352h32v576h-32z m-32-544V256h32v128h-32z m0-128v96h-32V256h32z m-64 96V256h32v96h-32z m32 64v128h-32v-128h32z m0 192v128h-32v-128h32z m0 192v128h-32v-128h32z m-64 128V256h32v672h-32z m0-672v672h-32V256h32z m-64 672V256h32v672h-32z m-64-576v-32h32v32h-32z m32 32V256h32v128h-32z m192-128h-192V224h192v32z m-192-96h-32V128h32v32z m160 64H448V192h320v32z m-32-32h-256V160h256v32z" fill="#F94524" p-id="1526"></path><path d="M448 96h-64V64h64v32z m-96 32V96h32v32h-32z m-32 64V128h32v64h-32z m-256 256v-64h32v64H64z m32-64v-32h32v32H96z m32-32v-32h32v32H128z m64-128V192h32v32H192z" fill="#136511" p-id="1527"></path><path d="M800 192v32h-32V192h32z m64 96v32h-32V288h32z m32 96v64h-32v-64h32z m32 128v64h-32v-64h32z m32 160v32h-32v-32h32z m0 192v32h-32v-32h32z m-32 32v32h-32v-32h32z m-32 32v32h-32v-32h32z m-160 32h-64v-32h64v32z m-160-32h-64v-32h64v32z m-128-32h-64v-32h64v32z m-128-32H288v-32h32v32z m-64-32H224v-32h32v32z" fill="#5A1A10" p-id="1528"></path><path d="M448 192V160h32v32h-32z m64-32V128h32v32h-32zM128 672v-32h32v32H128z m0-96v-64h32v64H128z m32-96v-32h32v32H160z m128 128v-32h32v32H288z m32-32v-32h32v32h-32z m32-192v-32h32v32h-32z m192-32v-32h32v32h-32z m32-32V288h32v32h-32z" fill="#CD4F1F" p-id="1529"></path><path d="M800 256V224h32v32h-32z m-64-64V160h32v32h-32z m-64-32V128h32v32h-32z m-192 0V128h32v32h-32zM192 800v-32h32v32H192z m-64-96v-32h32v32H128z m0-192v-32h32v32H128z" fill="#503D37" p-id="1530"></path></svg>