<?xml version="1.0" standalone="no"?><!DOCTYPE svg PUBLIC "-//W3C//DTD SVG 1.1//EN" "http://www.w3.org/Graphics/SVG/1.1/DTD/svg11.dtd"><svg t="1773505292001" class="icon" viewBox="0 0 1024 1024" version="1.1" xmlns="http://www.w3.org/2000/svg" p-id="2226" xmlns:xlink="http://www.w3.org/1999/xlink" width="200" height="200"><path d="M0 0m0 0l1024 0q0 0 0 0l0 1024q0 0 0 0l-1024 0q0 0 0 0l0-1024q0 0 0 0Z" fill="#E4E4E4" fill-opacity="0" p-id="2227"></path><path d="M960 640v96h-32v-96h32z m-64 96h64v32h-64v-32z m-32 32h64v32h-64v-32z m-32 32h64v32h-64v-32z m32 64h-64v-32h64v32z m-96 0h64v32h-64v-32z m-64 32h96v32h-96v-32z m-64 32h128v32h-128v-32z m256-832v96h-32V96h32z m0 128V128h32v96h-32z m32 64V160h32v128h-32z m32 416V224h32v480h-32z m64-384v288h-32v-288h32zM320 992h256v32h-256v-32z m384 0H224v-32h480v32zM288 960H160v-32h128v32z m-64-32H128v-32h96v32z m-32-32H128v-32h64v32z m-96 0v-64h32v64H96z m-32-32v-64h32v64H64z m128-512v-32h32v32H192z m0-64h64v32H192V288z m96 0H192V256h96v32zM192 288v96H160V288h32z m-32 64v96H128v-96h32z m-32 32v96H96v-96h32z m-32 64v128H64v-128h32z m-32 32v352H32V480h32zM0 800v-224h32v224H0zM224 224h96v32H224V224z m32-32h96v32H256V192z m32-32h96v32H288V160z m64-32h96v32h-96V128z m128 0h-96V96h96v32z m64-32h-96V64h96v32z m352 0h-96V64h96v32z m-32-32H480V32h384v32z m-64-32h-224V0h224v32z" fill="#010101" p-id="2228"></path><path d="M864 768v-32h32v32h-32z m-32 32v-32h32v32h-32z m-32 32v-32h32v32h-32z m-32 32v-32h32v32h-32z m-32 32v-32h32v32h-32z m-64 32v-32h32v32h-32z m-64 32v-32h32v32h-32zM288 960v-32h32v32H288z m-64-32v-32h32v32H224z m-96-64v-32h32v32H128z m-64-64v-32h32v32H64z m96-384v-32h32v32H160z m-64 96v-32h32v32H96zM480 128V96h32v32h-32z m64-32V64h32v32h-32z m288 32V96h32v32h-32z m128 160v32h-32V288h32z m0 320v32h-32v-32h32z m-32 64v64h-32v-64h32z" fill="#23190F" p-id="2229"></path><path d="M960 416v96h-32v-96h32zM224 864h128v32H224v-32z m64 32h96v32H288v-32z m64-64h64v32h-64v-32z m96 0v128h-32v-128h32z m0 128v-160h32v160h-32z m64-192v96h-32v-96h32z m0 128v64h-32v-64h32z m0-32v-96h32v96h-32z m64-128v192h-32v-192h32z m0 192v-128h32v128h-32z m0-160v-64h32v64h-32z m64-96v128h-32v-128h32z m0 160v96h-32v-96h32z m0 64v-256h32v256h-32z m64-288v288h-32v-288h32z m0 256v-96h32v96h-32z m0-128v-160h32v160h-32z m64-192v224h-32v-224h32z m0 256v64h-32v-64h32z m0 32v-160h32v160h-32z m0-224v-128h32v128h-32z m64-224v416h-32V384h32z m0 384V320h32v448h-32z m0-608V128h32v32h-32z m64 480V288h32v352h-32z m-32 64V224h32v480h-32z" fill="#8D5731" p-id="2230"></path><path d="M896 192v32h-32V192h32z m32 64v32h-32V256h32z m-64 480v-32h32v32h-32z m64-96v32h-32v-32h32z m32-288v64h-32v-64h32zM192 864h32v32H192v-32z m96 64H256v-32h32v32z m64-64h32v32h-32v-32z m64 0v64h-32v-64h32z m0 96h-64v-32h64v32z m192-192v32h-32v-32h32z m32 160v-32h32v32h-32z m64-32v-32h32v32h-32z m32-96v-32h32v32h-32z m-32-32v-32h32v32h-32z m64-96v-64h32v64h-32z m192-160v64h-32v-64h32zM640 832h-32v-32h32v32z m-64 128h-32v-32h32v32z m-64 0v-64h32v64h-32z m32-64h-64v-32h64v32z" fill="#73452B" p-id="2231"></path><path d="M128 800v32H96v-32h32z m672-352v32h-32v-32h32z m-32 64v32h-32v-32h32z m-32 32v32h-32v-32h32z m-32 32v32h-32v-32h32z m-32 32v32h-32v-32h32z m-32 32v32h-32v-32h32z m-32 32v32h-32v-32h32z m-32 32v32h-32v-32h32z m-32 32v32h-32v-32h32z m-64 32v32h-32v-32h32z m-32 64h-64v-32h64v32z m-96 32h-32v-32h32v32z" fill="#966D51" p-id="2232"></path><path d="M928 224v32h-32V224h32z m32 96v32h-32v-32h32z m0 256v32h-32v-32h32zM608 960h-32v-32h32v32z m-256 0h-32v-32h32v32z" fill="#482F1B" p-id="2233"></path><path d="M64 640v-64h32v64H64z m32-128h32v32H96v-32z m32-64h32v32H128v-32z m64-96h32v32H192v-32z m32-32h32v32H224v-32z m32-32h32v32H256V288z m64-64h32v32h-32V224z m32-32h32v32h-32V192z m96-64h32v32h-32V128z m64-32h32v32h-32V96z m288 0h-32V64h32v32z m-192 0h-32V64h32v32z" fill="#7F7F7F" p-id="2234"></path><path d="M160 768v-192h32v192H160z m64-256v256H192v-256h32z m0 256v-288h32v288H224z m64-352v352H256V416h32z m0 352V384h32v384H288z m96-448v32h-32v-32h32z m0 288v128h-32v-128h32z m-64 128V352h32v384h-32z" fill="#9A9A9A" p-id="2235"></path><path d="M448 160v32h-32V160h32z m-128 96v32H288V256h32z m-128 160v32H160v-32h32z m-32 64v32H128v-32h32z m-32 64v32H96v-32h32z m32 32v32H128v-32h32z m32-64v32H160v-32h32z m0 320h64v32H192v-32z m96-64h64v32H288v-32z m64 32h32v32h-32v-32z m96 0h-32v-32h32v32z m-64-64h32v32h-32v-32z m128-32h32v32h-32v-32zM864 192v64h-32V192h32z m-96-96h-160V64h160v32z m32 64v160h-32V160h32z m-64 224V128h32v256h-32z m0-256v320h-32V128h32z m-64 352V128h32v352h-32z m0-352v416h-32V128h32z m-64 448V128h32v448h-32z m0-448v480h-32V128h32z m-64 512V160h32v480h-32z m0-480v512h-32V160h32z m-64 512V192h32v480h-32z m0-480v512h-32V192h32z m-64 544V224h32v512h-32z m0-384v320h-32V352h32z" fill="#C5C3C4" p-id="2236"></path><path d="M192 512v-32h32v32H192z m32-32v-64h32v64H224z m32-64v-32h32v32H256z m32-32v-32h32v32H288z m32-32v-32h32v32h-32z m32-32V288h32v32h-32z m480-224v32h-32V96h32z m32 64v32h-32V160h32z m0 96v64h-32V256h32z m-64 160v32h-32v-32h32z m32-64v32h-32v-32h32z m-64 160h-32v-32h32v32z m-32 32h-32v-32h32v32z m-224 224h-32v-32h32v32z m-192 96H256v-32h64v32z m-128 0H160v-32h32v32z m-96-128v32H64v-32h32z m96-192v32H160v-32h32z m-32 64v160H128v-160h32z m0 160h128v32H160v-32z m160-32h64v32h-64v-32z m96-64v64h-32v-64h32z m0-416v96h-32V256h32z m-64 352v-256h32v256h-32z" fill="#A9A9A9" p-id="2237"></path><path d="M384 192V160h32v32h-32z" fill="#000000" p-id="2238"></path><path d="M128 576v-64h32v64H128z m32-64v-64h32v64H160z m32-64v-64h32v64H192z m32-32v-64h32v64H224z m32-32v-64h32v64H256z m32-96h32v32H288V288z m32-32h64v32h-64V256z m32-32h64v32h-64V224z m32-32h64v32h-64V192z m64-32h64v32h-64V160z m32-32h96v32h-96V128z m64-32h224v32h-224V96z m256 0v64h-32V96h32z m32 32v224h-32V128h32z m-64 288v-96h32v96h-32z m0-32v96h-32v-96h32z m-64 128v-64h32v64h-32z m0-32v64h-32v-64h32z m0 96h-64v-32h64v32z m-96 0h64v32h-64v-32z m32 64h-64v-32h64v32z m-32 32h-64v-32h64v32z m-32 32h-96v-32h96v32z m-64 32h-64v-32h64v32z m-32 32h-64v-32h64v32z m-64 32h-64v-32h64v32z m-64 32H160v-32h192v32z m-224 0v-64h32v64H128z m-32-32v-224h32v224H96z" fill="#F8F6F7" p-id="2239"></path><path d="M64 736v-96h32v96H64z m128-256v-32h32v32H192z m96-128v-32h32v32H288z m32-32V288h32v32h-32z" fill="#D8D8D8" p-id="2240"></path></svg>