<?xml version="1.0" standalone="no"?><!DOCTYPE svg PUBLIC "-//W3C//DTD SVG 1.1//EN" "http://www.w3.org/Graphics/SVG/1.1/DTD/svg11.dtd"><svg t="1773494156534" class="icon" viewBox="0 0 1024 1024" version="1.1" xmlns="http://www.w3.org/2000/svg" p-id="2806" xmlns:xlink="http://www.w3.org/1999/xlink" width="200" height="200"><path d="M496.806 446.208c5.963 0 9.667-12.363 9.667-32.075 0-19.562-3.704-31.112-9.667-31.112-5.949 0-9.608 11.55-9.608 31.127 0 19.697 3.66 32.06 9.608 32.06zM313.992 414.69c-1.22-10.06-2.38-22.152-3.584-32.482h-0.256c-1.085 10.601-2.304 22.423-3.464 32.482l-0.964 8.553h9.231l-0.963-8.553z m235.61-18.763c0-9.503-2.74-12.635-7.906-12.635h-4.864v27.181h4.864c5.165 0 7.906-5.03 7.906-14.546z m56.802 1.099c0-10.195-2.922-13.734-8.147-13.734h-4.442v29.214h4.743c5.286 0 7.83-5.571 7.83-15.48z m74.932 17.664c-1.22-10.06-2.379-22.152-3.584-32.482h-0.256c-1.084 10.601-2.304 22.423-3.463 32.482l-0.964 8.553h9.231l-0.964-8.553z" fill="#2C2C2C" p-id="2807"></path><path d="M1024 501.896v-28.447h-33.611v-51.712H804.2v-59.482H219.8v59.482H28.446v51.712H0v28.447h28.446V615.68H0v28.431h28.446v46.547H990.39v-46.532H1024v-28.461h-33.611V501.91H1024z m-280.26-127.94h28.702v9.186h-17.844v8.568h15.149v9.306h-15.15v9.804h18.493v9.306h-29.365v-46.17z m-21.052-0.874c5.903 0 10.647 2.801 13.749 6.024l-5.723 7.078c-2.258-2.109-4.623-3.615-7.83-3.615-5.858 0-10.662 5.346-10.662 14.351 0 9.186 4.141 14.517 10.526 14.517 3.584 0 6.506-1.852 8.629-4.216l5.722 6.957c-3.84 4.518-8.884 6.822-14.772 6.822-11.49 0-21.233-8.072-21.233-23.718 0-15.39 10.09-24.2 21.594-24.2z m-51.32 0.874h13.01l14.035 46.17h-11.43l-2.605-10.616h-13.387l-2.605 10.616h-11.068l14.05-46.17z m-46.653 0h28.702v9.186h-17.814v8.568h15.134v9.306h-15.134v9.804h18.477v9.306h-29.365v-46.17z m-41.788 0H598.8c9.969 0 18.176 3.599 18.176 15.013 0 10.993-8.327 15.827-17.875 15.827h-5.27v15.345h-10.903v-46.17z m-56.983 0h16.595c9.668 0 17.694 3.343 17.694 14.516 0 6.777-3.102 11.114-7.77 13.343l10.09 18.311h-12.168l-8.328-16.263h-5.225v16.263h-10.888v-46.17z m-29.138-0.874c12.348 0 20.736 8.63 20.736 23.718 0 15.134-8.388 24.2-20.736 24.2s-20.736-9.066-20.736-24.2c0-15.15 8.402-23.718 20.736-23.718z m-55.402 0.874h28.883v9.186h-17.995v10.12h15.45v9.245h-15.45v17.62h-10.888v-46.171z m-52.239 0h28.702v9.186h-17.814v8.568h15.134v9.306h-15.134v9.804h18.477v9.306h-29.365v-46.17z m-53.338 0h11.746l7.168 19.923c0.903 2.665 1.641 5.571 2.484 8.433h0.302c0.918-2.862 1.656-5.768 2.5-8.433l6.926-19.923h11.807v46.17h-9.91v-15.812c0-4.608 0.844-11.49 1.386-16.022h-0.24l-3.765 11.053-6.084 16.866h-5.963l-6.13-16.866-3.659-11.053h-0.24c0.557 4.517 1.4 11.414 1.4 16.007v15.842h-9.728v-46.17z m-31.804 0h13.01l14.035 46.17h-11.43l-2.605-10.616h-13.387l-2.605 10.616h-11.068l14.05-46.17z m-32.723-0.874c6.626 0 11.37 2.862 14.456 6.024l-5.767 7.078c-2.184-2.048-4.563-3.615-8.328-3.615-6.686 0-11.49 5.346-11.49 14.351 0 9.186 4.006 14.517 12.394 14.517a7.59 7.59 0 0 0 4.322-1.174v-7.455h-7.168v-9.05h16.835v21.594c-3.162 3.103-8.749 5.648-15.074 5.648-12.589 0-22.437-8.072-22.437-23.718 0-15.39 10.15-24.2 22.257-24.2z m703.563 299.475H49.137V439.838h925.726v232.72z" fill="#2C2C2C" p-id="2808"></path><path d="M413.741 486.385h69.813v-23.281H318.057V486.4h72.403v80.158h-85.323v23.266h85.323v59.482h23.281v-59.482H493.9v-23.266h-80.158z" fill="#2C2C2C" p-id="2809"></path><path d="M348.024 499.305H323.93l14.562 54.303h24.094l-14.562-54.303z m117.685 54.303l14.562-54.303h-24.094l-14.562 54.303h24.094z m136.795-23.266h-23.266v-67.238h-23.281v67.238H530.1v20.69h25.856v98.26h23.28v-98.26h23.267v-20.69z m74.992-67.238h-23.28v7.755h-38.762v15.51h38.777v12.951h-38.777v15.511h38.777v15.51h-38.777v15.511h100.85v-15.51h-38.808v-15.51h38.792V499.32h-38.792v-12.95h38.792v-15.51h-38.792v-7.756z" fill="#2C2C2C" p-id="2810"></path><path d="M591.18 517.948l3.523-50.296 11.34 0.798-3.54 50.296-11.324-0.798z m-61.11 129.973l11.822 1.355 3.69-86.573-11.822-1.355-3.69 86.573z m59.513-85.218l3.69 86.588 11.82-1.37-3.689-86.588-11.82 1.37z m-43.972-43.52l-3.674-50.929-11.821 0.813 3.674 50.93 11.821-0.799z m142.216 37.015h-69.813v93.093h23.281v-31.02h46.532v31.02h23.28v-93.093h-23.265z m0 51.712H641.28v-10.33h46.532v10.33z m0-20.676H641.28v-10.346h46.532v10.346z m230.159-38.792v-23.266h-62.073v-12.95h-23.265v12.95H770.59v51.712h-18.1v23.266h60.054l-30.118 23.281H752.49v23.266h36.202v-1.4l1.084 1.4 55.115-42.586 54.995 42.586h36.202v-23.266h-28.25l-30.058-23.28h58.308v-23.251h-18.101v-28.462z m-85.338 28.446h-38.792v-28.446h38.792v28.446z m62.057 0h-38.792v-28.446h38.792v28.446z" fill="#2C2C2C" p-id="2811"></path><path d="M902.475 478.63v-15.51h-23.28v15.51h-67.238v-15.51H788.69v15.51h-36.202v23.266h36.202v12.935h23.266v-12.935h67.237v12.935h23.266v-12.935h33.627V478.63H902.46z m-755.08 7.755h33.612v-23.281H90.504V486.4h33.61v20.676H85.339v23.28h38.777v118.95h23.28v-118.95h41.367v-23.28h-41.366V486.4z" fill="#2C2C2C" p-id="2812"></path><path d="M86.904 649.291h16.264l7.153-100.849H94.057l-7.153 100.85z m74.286-100.849l7.153 100.85h16.263l-7.138-100.85h-16.263z m35.328 87.914h80.173V470.859h-80.173v165.497z m18.115-147.396h43.957l-7.755 33.626 10.33 2.59s4.187 1.808 2.59 7.756c-1.596 5.933-36.201 93.093-36.201 93.093l-5.165-64.647-10.346-2.59 2.59-69.828z" fill="#2C2C2C" p-id="2813"></path></svg>